<svg xmlns="http://www.w3.org/2000/svg" xmlns:xlink="http://www.w3.org/1999/xlink" width="2478" zoomAndPan="magnify" viewBox="0 0 1858.5 603.000004" height="804" preserveAspectRatio="xMidYMid meet" version="1.0"><defs><g/><clipPath id="93f31e2c3c"><path d="M 0.0898438 0.59375 L 1730 0.59375 L 1730 438.835938 L 0.0898438 438.835938 Z M 0.0898438 0.59375 " clip-rule="nonzero"/></clipPath><clipPath id="b96093ae93"><path d="M 16.5625 0.59375 L 1713.351562 0.59375 C 1717.71875 0.59375 1721.910156 2.328125 1725 5.417969 C 1728.089844 8.507812 1729.824219 12.699219 1729.824219 17.066406 L 1729.824219 422.363281 C 1729.824219 426.734375 1728.089844 430.921875 1725 434.011719 C 1721.910156 437.101562 1717.71875 438.835938 1713.351562 438.835938 L 16.5625 438.835938 C 12.195312 438.835938 8.003906 437.101562 4.914062 434.011719 C 1.824219 430.921875 0.0898438 426.734375 0.0898438 422.363281 L 0.0898438 17.066406 C 0.0898438 12.699219 1.824219 8.507812 4.914062 5.417969 C 8.003906 2.328125 12.195312 0.59375 16.5625 0.59375 Z M 16.5625 0.59375 " clip-rule="nonzero"/></clipPath><clipPath id="e1f3c4714e"><path d="M 0.0898438 0.59375 L 1729.996094 0.59375 L 1729.996094 438.835938 L 0.0898438 438.835938 Z M 0.0898438 0.59375 " clip-rule="nonzero"/></clipPath><clipPath id="36232118ca"><path d="M 16.5625 0.59375 L 1713.351562 0.59375 C 1717.71875 0.59375 1721.910156 2.328125 1725 5.417969 C 1728.089844 8.507812 1729.824219 12.699219 1729.824219 17.066406 L 1729.824219 422.363281 C 1729.824219 426.734375 1728.089844 430.921875 1725 434.011719 C 1721.910156 437.101562 1717.71875 438.835938 1713.351562 438.835938 L 16.5625 438.835938 C 12.195312 438.835938 8.003906 437.101562 4.914062 434.011719 C 1.824219 430.921875 0.0898438 426.734375 0.0898438 422.363281 L 0.0898438 17.066406 C 0.0898438 12.699219 1.824219 8.507812 4.914062 5.417969 C 8.003906 2.328125 12.195312 0.59375 16.5625 0.59375 Z M 16.5625 0.59375 " clip-rule="nonzero"/></clipPath><clipPath id="d7e2846383"><rect x="0" width="1730" y="0" height="439"/></clipPath><clipPath id="b1dab291ef"><rect x="0" width="1621" y="0" height="384"/></clipPath><clipPath id="563a17fa22"><path d="M 511 124 L 726 124 L 726 350 L 511 350 Z M 511 124 " clip-rule="nonzero"/></clipPath><clipPath id="fe20b22e68"><path d="M 553.472656 124.628906 L 725.96875 318.632812 L 630.796875 403.253906 L 458.300781 209.25 Z M 553.472656 124.628906 " clip-rule="nonzero"/></clipPath><clipPath id="60861ebb21"><path d="M 553.472656 124.628906 L 725.96875 318.632812 L 630.796875 403.253906 L 458.300781 209.25 Z M 553.472656 124.628906 " clip-rule="nonzero"/></clipPath><clipPath id="690103577c"><path d="M 567 182 L 673 182 L 673 288 L 567 288 Z M 567 182 " clip-rule="nonzero"/></clipPath><clipPath id="bb1ac7a158"><path d="M 644.042969 153.800781 L 700.957031 210.714844 L 624.253906 287.417969 L 567.339844 230.503906 Z M 644.042969 153.800781 " clip-rule="nonzero"/></clipPath><clipPath id="5896c897e9"><path d="M 672.5 182.257812 L 624.421875 287.25 L 567.507812 230.335938 Z M 672.5 182.257812 " clip-rule="nonzero"/></clipPath><clipPath id="0574b5e031"><path d="M 0.445312 0.0820312 L 105.628906 0.0820312 L 105.628906 105.269531 L 0.445312 105.269531 Z M 0.445312 0.0820312 " clip-rule="nonzero"/></clipPath><clipPath id="e21c892418"><path d="M 77.042969 -28.199219 L 133.957031 28.714844 L 57.253906 105.417969 L 0.339844 48.503906 Z M 77.042969 -28.199219 " clip-rule="nonzero"/></clipPath><clipPath id="c593e96088"><path d="M 105.5 0.257812 L 57.421875 105.25 L 0.507812 48.335938 Z M 105.5 0.257812 " clip-rule="nonzero"/></clipPath><clipPath id="2e5f3b331d"><rect x="0" width="106" y="0" height="106"/></clipPath><clipPath id="0c5537f833"><path d="M 586 115 L 744 115 L 744 291 L 586 291 Z M 586 115 " clip-rule="nonzero"/></clipPath><clipPath id="6691dadbc2"><path d="M 583.835938 129.691406 L 684.121094 43.476562 L 823.023438 205.046875 L 722.738281 291.261719 Z M 583.835938 129.691406 " clip-rule="nonzero"/></clipPath><clipPath id="a003470a8d"><path d="M 583.835938 129.691406 L 684.121094 43.476562 L 823.023438 205.046875 L 722.738281 291.261719 Z M 583.835938 129.691406 " clip-rule="nonzero"/></clipPath><clipPath id="9f9d7b61be"><path d="M 671 99 L 774 99 L 774 213 L 671 213 Z M 671 99 " clip-rule="nonzero"/></clipPath><clipPath id="fbe6d29ecd"><path d="M 583.835938 129.691406 L 684.121094 43.476562 L 823.023438 205.046875 L 722.738281 291.261719 Z M 583.835938 129.691406 " clip-rule="nonzero"/></clipPath><clipPath id="d998115cc6"><path d="M 583.835938 129.691406 L 684.121094 43.476562 L 823.023438 205.046875 L 722.738281 291.261719 Z M 583.835938 129.691406 " clip-rule="nonzero"/></clipPath><clipPath id="9e6e3085c4"><rect x="0" width="1731" y="0" height="439"/></clipPath></defs><g transform="matrix(1, 0, 0, 1, 64, 81)"><g clip-path="url(#9e6e3085c4)"><g clip-path="url(#93f31e2c3c)"><g clip-path="url(#b96093ae93)"><g transform="matrix(1, 0, 0, 1, 0, -0.000000000000028422)"><g clip-path="url(#d7e2846383)"><g clip-path="url(#e1f3c4714e)"><g clip-path="url(#36232118ca)"><path fill="#1800ad" d="M 0.0898438 0.59375 L 1729.09375 0.59375 L 1729.09375 438.835938 L 0.0898438 438.835938 Z M 0.0898438 0.59375 " fill-opacity="1" fill-rule="nonzero"/></g></g></g></g></g></g><g transform="matrix(1, 0, 0, 1, 70, 28)"><g clip-path="url(#b1dab291ef)"><g fill="#ffffff" fill-opacity="1"><g transform="translate(3.412636, 303.033206)"><g><path d="M 104.5 -218.78125 C 123.4375 -218.78125 139.757812 -214.914062 153.46875 -207.1875 C 167.1875 -199.46875 178.617188 -188.09375 187.765625 -173.0625 L 165.890625 -156.09375 C 157.828125 -170.019531 148.734375 -179.867188 138.609375 -185.640625 C 128.492188 -191.410156 116.25 -194.296875 101.875 -194.296875 C 90.34375 -194.296875 80.820312 -192.660156 73.3125 -189.390625 C 65.800781 -186.128906 60.300781 -181.832031 56.8125 -176.5 C 53.332031 -171.164062 51.59375 -165.125 51.59375 -158.375 C 51.59375 -150.757812 53.988281 -144.066406 58.78125 -138.296875 C 63.570312 -132.523438 73.148438 -128.003906 87.515625 -124.734375 L 134.203125 -114.296875 C 154.890625 -109.722656 169.3125 -102.804688 177.46875 -93.546875 C 185.632812 -84.296875 189.71875 -72.816406 189.71875 -59.109375 C 189.71875 -46.910156 186.289062 -36.078125 179.4375 -26.609375 C 172.582031 -17.140625 162.945312 -9.789062 150.53125 -4.5625 C 138.125 0.65625 123.539062 3.265625 106.78125 3.265625 C 91.101562 3.265625 77.332031 1.144531 65.46875 -3.09375 C 53.601562 -7.34375 43.425781 -13.054688 34.9375 -20.234375 C 26.445312 -27.421875 19.484375 -35.476562 14.046875 -44.40625 L 36.90625 -63.03125 C 41.039062 -54.75 46.375 -47.453125 52.90625 -41.140625 C 59.4375 -34.828125 67.328125 -29.925781 76.578125 -26.4375 C 85.828125 -22.957031 96.4375 -21.21875 108.40625 -21.21875 C 119.507812 -21.21875 129.144531 -22.578125 137.3125 -25.296875 C 145.476562 -28.023438 151.738281 -32.054688 156.09375 -37.390625 C 160.445312 -42.722656 162.625 -49.195312 162.625 -56.8125 C 162.625 -63.78125 160.335938 -70.039062 155.765625 -75.59375 C 151.191406 -81.144531 142.59375 -85.335938 129.96875 -88.171875 L 79.34375 -99.59375 C 66.070312 -102.644531 55.351562 -106.835938 47.1875 -112.171875 C 39.019531 -117.503906 33.140625 -123.816406 29.546875 -131.109375 C 25.960938 -138.398438 24.171875 -146.289062 24.171875 -154.78125 C 24.171875 -166.320312 27.378906 -176.9375 33.796875 -186.625 C 40.222656 -196.3125 49.472656 -204.09375 61.546875 -209.96875 C 73.628906 -215.84375 87.945312 -218.78125 104.5 -218.78125 Z M 104.5 -218.78125 "/></g></g></g><g fill="#ffffff" fill-opacity="1"><g transform="translate(234.589977, 303.033206)"><g><path d="M 186.78125 -215.515625 L 186.78125 -191.03125 L 111.671875 -191.03125 L 111.671875 0 L 85.5625 0 L 85.5625 -191.03125 L 10.453125 -191.03125 L 10.453125 -215.515625 Z M 186.78125 -215.515625 "/></g></g></g><g fill="#ffffff" fill-opacity="1"><g transform="translate(454.669742, 303.033206)"><g/></g></g><g fill="#ffffff" fill-opacity="1"><g transform="translate(597.687587, 303.033206)"><g/></g></g><g fill="#ffffff" fill-opacity="1"><g transform="translate(740.719331, 303.033206)"><g><path d="M 116.90625 -215.515625 C 138.894531 -215.515625 156.523438 -209.851562 169.796875 -198.53125 C 183.078125 -187.21875 189.71875 -171.875 189.71875 -152.5 C 189.71875 -133.125 183.023438 -118.046875 169.640625 -107.265625 C 156.253906 -96.492188 138.566406 -91.109375 116.578125 -91.109375 L 114.296875 -89.46875 L 61.390625 -89.46875 L 61.390625 0 L 35.265625 0 L 35.265625 -215.515625 Z M 116.578125 -113.96875 C 132.035156 -113.96875 143.519531 -117.175781 151.03125 -123.59375 C 158.539062 -130.019531 162.296875 -139.65625 162.296875 -152.5 C 162.296875 -165.34375 158.539062 -174.972656 151.03125 -181.390625 C 143.519531 -187.816406 132.035156 -191.03125 116.578125 -191.03125 L 61.390625 -191.03125 L 61.390625 -113.96875 Z M 131.59375 -108.734375 L 202.78125 0 L 171.765625 0 L 109.71875 -94.375 Z M 131.59375 -108.734375 "/></g></g></g><g fill="#ffffff" fill-opacity="1"><g transform="translate(989.529406, 303.033206)"><g><path d="M 61.390625 -215.515625 L 61.390625 0 L 35.265625 0 L 35.265625 -215.515625 Z M 61.390625 -215.515625 "/></g></g></g><g fill="#ffffff" fill-opacity="1"><g transform="translate(1117.853901, 303.033206)"><g><path d="M 204.421875 -215.515625 L 204.421875 0 L 172.09375 0 L 81.96875 -144.328125 L 59.109375 -184.828125 L 58.78125 -184.828125 L 60.078125 -152.171875 L 60.078125 0 L 35.265625 0 L 35.265625 -215.515625 L 67.59375 -215.515625 L 157.390625 -71.84375 L 180.578125 -30.375 L 180.90625 -30.375 L 179.59375 -63.34375 L 179.59375 -215.515625 Z M 204.421875 -215.515625 "/></g></g></g><g fill="#ffffff" fill-opacity="1"><g transform="translate(1389.193842, 303.033206)"><g><path d="M 186.78125 -215.515625 L 186.78125 -191.03125 L 111.671875 -191.03125 L 111.671875 0 L 85.5625 0 L 85.5625 -191.03125 L 10.453125 -191.03125 L 10.453125 -215.515625 Z M 186.78125 -215.515625 "/></g></g></g></g></g><g clip-path="url(#563a17fa22)"><g clip-path="url(#fe20b22e68)"><g clip-path="url(#60861ebb21)"><path fill="#ffffff" d="M 725.902344 318.558594 C 672.351562 364.527344 591.632812 359.226562 544.507812 306.222656 C 497.429688 253.277344 501.609375 172.492188 553.527344 124.691406 Z M 725.902344 318.558594 " fill-opacity="1" fill-rule="nonzero"/></g></g></g><g clip-path="url(#690103577c)"><g clip-path="url(#bb1ac7a158)"><g clip-path="url(#5896c897e9)"><g transform="matrix(1, 0, 0, 1, 567, 182)"><g clip-path="url(#2e5f3b331d)"><g clip-path="url(#0574b5e031)"><g clip-path="url(#e21c892418)"><g clip-path="url(#c593e96088)"><path fill="#1800ad" d="M 77.042969 -28.199219 L 133.957031 28.714844 L 57.476562 105.195312 L 0.5625 48.28125 Z M 77.042969 -28.199219 " fill-opacity="1" fill-rule="nonzero"/></g></g></g></g></g></g></g></g><g clip-path="url(#0c5537f833)"><g clip-path="url(#6691dadbc2)"><g clip-path="url(#a003470a8d)"><path fill="#ffffff" d="M 663.738281 122.449219 C 650.722656 116.835938 637.417969 114.410156 624.183594 115.230469 C 601.632812 116.625 587.34375 126.847656 586.75 127.285156 C 586.300781 127.601562 586.109375 128.183594 586.273438 128.710938 C 586.441406 129.242188 586.921875 129.601562 587.480469 129.617188 C 587.625 129.621094 602.625 130.039062 622.703125 136.589844 C 641.246094 142.644531 667.972656 155.316406 690.039062 181.304688 C 712.070312 207.246094 719.488281 235.011719 721.832031 253.738281 C 724.378906 274.0625 721.667969 288.4375 721.640625 288.582031 C 721.527344 289.15625 721.8125 289.726562 722.335938 289.984375 C 722.804688 290.21875 723.363281 290.140625 723.75 289.808594 C 723.792969 289.769531 723.828125 289.730469 723.867188 289.6875 C 724.40625 289.089844 737.082031 274.726562 741.910156 251.191406 C 744.742188 237.371094 744.238281 223.273438 740.398438 209.304688 C 735.609375 191.894531 725.609375 174.636719 710.664062 158.015625 C 695.738281 141.394531 679.945312 129.429688 663.738281 122.449219 Z M 663.738281 122.449219 " fill-opacity="1" fill-rule="nonzero"/></g></g></g><g clip-path="url(#9f9d7b61be)"><g clip-path="url(#fbe6d29ecd)"><g clip-path="url(#d998115cc6)"><path fill="#ffffff" d="M 698.835938 99.882812 C 683.839844 98.613281 673.359375 101.691406 672.917969 101.824219 C 672.324219 102.003906 671.941406 102.578125 672.003906 103.195312 C 672.066406 103.8125 672.5625 104.300781 673.179688 104.347656 C 673.511719 104.375 706.578125 107.519531 736.089844 142.148438 C 765.636719 176.8125 765.632812 210.371094 765.632812 210.707031 C 765.625 211.332031 766.066406 211.871094 766.683594 211.988281 C 767.082031 212.0625 767.472656 211.945312 767.765625 211.695312 C 767.921875 211.558594 768.050781 211.382812 768.132812 211.175781 C 768.324219 210.660156 772.960938 198.371094 773.292969 181.519531 C 773.605469 165.921875 770.082031 143.429688 751.542969 124.863281 C 733.039062 106.339844 712.667969 101.050781 698.835938 99.882812 Z M 698.835938 99.882812 " fill-opacity="1" fill-rule="nonzero"/></g></g></g></g></g></svg>